<svg width="251" height="69" viewBox="0 0 251 69" fill="none" xmlns="http://www.w3.org/2000/svg">
<g filter="url(#filter0_d_168_5311)">
<mask id="path-1-inside-1_168_5311" fill="white">
<path fill-rule="evenodd" clip-rule="evenodd" d="M34.5 12C22.0736 12 12 22.0736 12 34.5C12 40.3046 14.1981 45.5959 17.8073 49.5868L14.3147 53.4558C13.1533 54.7423 14.0485 56.801 15.7729 56.809L32.2128 56.8852C32.9649 56.9611 33.7279 57 34.5 57H216.5C228.926 57 239 46.9264 239 34.5C239 22.0736 228.926 12 216.5 12H34.5Z"/>
</mask>
<path fill-rule="evenodd" clip-rule="evenodd" d="M34.5 12C22.0736 12 12 22.0736 12 34.5C12 40.3046 14.1981 45.5959 17.8073 49.5868L14.3147 53.4558C13.1533 54.7423 14.0485 56.801 15.7729 56.809L32.2128 56.8852C32.9649 56.9611 33.7279 57 34.5 57H216.5C228.926 57 239 46.9264 239 34.5C239 22.0736 228.926 12 216.5 12H34.5Z" fill="white"/>
<path d="M17.8073 49.5868L18.5496 50.2569L19.155 49.5862L18.549 48.9161L17.8073 49.5868ZM14.3147 53.4558L13.5724 52.7857H13.5724L14.3147 53.4558ZM15.7729 56.809L15.7775 55.809H15.7775L15.7729 56.809ZM32.2128 56.8852L32.3132 55.8902L32.2655 55.8854L32.2174 55.8852L32.2128 56.8852ZM13 34.5C13 22.6259 22.6259 13 34.5 13V11C21.5213 11 11 21.5213 11 34.5H13ZM18.549 48.9161C15.0995 45.1018 13 40.0473 13 34.5H11C11 40.562 13.2966 46.09 17.0656 50.2576L18.549 48.9161ZM15.057 54.1258L18.5496 50.2569L17.065 48.9167L13.5724 52.7857L15.057 54.1258ZM15.7775 55.809C14.9361 55.8051 14.4621 54.7848 15.057 54.1258L13.5724 52.7857C11.8444 54.6999 13.1609 57.7969 15.7682 57.809L15.7775 55.809ZM32.2174 55.8852L15.7775 55.809L15.7682 57.809L32.2082 57.8852L32.2174 55.8852ZM34.5 56C33.7615 56 33.032 55.9628 32.3132 55.8902L32.1124 57.8801C32.8978 57.9594 33.6943 58 34.5 58V56ZM216.5 56H34.5V58H216.5V56ZM238 34.5C238 46.3741 228.374 56 216.5 56V58C229.479 58 240 47.4787 240 34.5H238ZM216.5 13C228.374 13 238 22.6259 238 34.5H240C240 21.5213 229.479 11 216.5 11V13ZM34.5 13H216.5V11H34.5V13Z" fill="#DFDFDF" mask="url(#path-1-inside-1_168_5311)"/>
</g>
<defs>
<filter id="filter0_d_168_5311" x="0" y="0" width="251" height="69" filterUnits="userSpaceOnUse" color-interpolation-filters="sRGB">
<feFlood flood-opacity="0" result="BackgroundImageFix"/>
<feColorMatrix in="SourceAlpha" type="matrix" values="0 0 0 0 0 0 0 0 0 0 0 0 0 0 0 0 0 0 127 0" result="hardAlpha"/>
<feOffset/>
<feGaussianBlur stdDeviation="6"/>
<feComposite in2="hardAlpha" operator="out"/>
<feColorMatrix type="matrix" values="0 0 0 0 0.925 0 0 0 0 0.925 0 0 0 0 0.925 0 0 0 1 0"/>
<feBlend mode="normal" in2="BackgroundImageFix" result="effect1_dropShadow_168_5311"/>
<feBlend mode="normal" in="SourceGraphic" in2="effect1_dropShadow_168_5311" result="shape"/>
</filter>
</defs>
</svg>
