<svg width="98" height="98" viewBox="0 0 98 98" fill="none" xmlns="http://www.w3.org/2000/svg">
<circle cx="49" cy="49" r="49" fill="#DFDFDF"/>
<mask id="mask0_113_448" style="mask-type:alpha" maskUnits="userSpaceOnUse" x="0" y="0" width="98" height="98">
<circle cx="49" cy="49" r="48.5" fill="#242424" stroke="#FFF4FA"/>
</mask>
<g mask="url(#mask0_113_448)">
<path d="M39.6307 62.7812C37.1041 62.7812 34.9986 61.7046 33.3143 59.5513C31.6299 57.3979 30.9632 54.8857 31.3141 52.0146L32.6826 40.291C33.2441 35.7451 35.0688 31.9776 38.1568 28.9885C41.2449 25.9962 44.8592 24.5 49 24.5C53.1408 24.5 56.7551 25.9962 59.8432 28.9885C62.9312 31.9776 64.7559 35.7451 65.3174 40.291L66.6859 52.0146C67.0369 54.8857 66.3701 57.3979 64.6857 59.5513C63.0014 61.7046 60.8959 62.7812 58.3693 62.7812H39.6307ZM15.3125 101.062V87.6641C15.3125 84.9525 15.9273 82.4594 17.1569 80.1849C18.3837 77.9135 20.0147 76.1797 22.05 74.9834C26.4013 72.5111 30.8228 70.656 35.3145 69.4183C39.8061 68.1837 44.368 67.5664 49 67.5664C53.632 67.5664 58.1939 68.1837 62.6855 69.4183C67.1772 70.656 71.5987 72.5111 75.95 74.9834C77.9853 76.1797 79.6163 77.9135 80.8431 80.1849C82.0727 82.4594 82.6875 84.9525 82.6875 87.6641V101.062H15.3125Z" fill="#A5A5A5"/>
</g>
</svg>
