
<svg width="18" height="18" viewBox="0 0 18 18" fill="none" xmlns="http://www.w3.org/2000/svg">
<path d="M3.41245 15.8625C3.07495 15.8625 2.77808 15.7343 2.52183 15.4781C2.26558 15.2218 2.13745 14.925 2.13745 14.5875V3.41245C2.13745 3.06245 2.26558 2.76245 2.52183 2.51245C2.77808 2.26245 3.07495 2.13745 3.41245 2.13745H8.6062V3.41245H3.41245V14.5875H14.5875V9.3937H15.8625V14.5875C15.8625 14.925 15.7375 15.2218 15.4875 15.4781C15.2375 15.7343 14.9375 15.8625 14.5875 15.8625H3.41245ZM7.27495 11.6437L6.37495 10.725L13.6875 3.41245H9.7312V2.13745H15.8625V8.2687H14.5875V4.3312L7.27495 11.6437Z" fill="#FE52B0"/>
</svg>
