<svg width="32" height="32" viewBox="0 0 32 32" fill="none" xmlns="http://www.w3.org/2000/svg">
<path d="M24.2334 30.1C22.989 30.1 21.9167 29.65 21.0167 28.75C20.1167 27.85 19.6667 26.7778 19.6667 25.5334C19.6667 25.3778 19.6834 25.1834 19.7167 24.95C19.7501 24.7167 19.8001 24.4889 19.8667 24.2667L11.0001 19.1C10.6001 19.5445 10.1167 19.9 9.55007 20.1667C8.9834 20.4334 8.40006 20.5667 7.80006 20.5667C6.5334 20.5667 5.45562 20.1167 4.56673 19.2167C3.67784 18.3167 3.2334 17.2445 3.2334 16C3.2334 14.7334 3.67784 13.6556 4.56673 12.7667C5.45562 11.8778 6.5334 11.4334 7.80006 11.4334C8.40006 11.4334 8.97229 11.55 9.51673 11.7834C10.0612 12.0167 10.5556 12.3556 11.0001 12.8L19.8667 7.70003C19.8001 7.52225 19.7501 7.31669 19.7167 7.08336C19.6834 6.85002 19.6667 6.64447 19.6667 6.46669C19.6667 5.22225 20.1167 4.15002 21.0167 3.25002C21.9167 2.35002 22.989 1.90002 24.2334 1.90002C25.5001 1.90002 26.5778 2.35002 27.4667 3.25002C28.3556 4.15002 28.8001 5.22225 28.8001 6.46669C28.8001 7.71114 28.3556 8.78336 27.4667 9.68336C26.5778 10.5834 25.5001 11.0334 24.2334 11.0334C23.6112 11.0334 23.0278 10.9445 22.4834 10.7667C21.939 10.5889 21.4778 10.2778 21.1001 9.83336L12.2001 14.6667C12.2667 14.8667 12.3112 15.1 12.3334 15.3667C12.3556 15.6334 12.3667 15.8445 12.3667 16C12.3667 16.1556 12.3556 16.3334 12.3334 16.5334C12.3112 16.7334 12.2667 16.9445 12.2001 17.1667L21.1001 22.1334C21.4778 21.7556 21.9278 21.4667 22.4501 21.2667C22.9723 21.0667 23.5667 20.9667 24.2334 20.9667C25.5001 20.9667 26.5778 21.4167 27.4667 22.3167C28.3556 23.2167 28.8001 24.2889 28.8001 25.5334C28.8001 26.7778 28.3501 27.85 27.4501 28.75C26.5501 29.65 25.4778 30.1 24.2334 30.1ZM24.2334 8.26669C24.7445 8.26669 25.1723 8.09447 25.5167 7.75002C25.8612 7.40558 26.0334 6.9778 26.0334 6.46669C26.0334 5.95558 25.8612 5.5278 25.5167 5.18336C25.1723 4.83891 24.7445 4.66669 24.2334 4.66669C23.7223 4.66669 23.2945 4.83891 22.9501 5.18336C22.6056 5.5278 22.4334 5.95558 22.4334 6.46669C22.4334 6.9778 22.6056 7.40558 22.9501 7.75002C23.2945 8.09447 23.7223 8.26669 24.2334 8.26669ZM7.80006 17.8C8.31118 17.8 8.73895 17.6278 9.0834 17.2834C9.42784 16.9389 9.60006 16.5111 9.60006 16C9.60006 15.4889 9.42784 15.0611 9.0834 14.7167C8.73895 14.3722 8.31118 14.2 7.80006 14.2C7.28895 14.2 6.86118 14.3722 6.51673 14.7167C6.17229 15.0611 6.00007 15.4889 6.00007 16C6.00007 16.5111 6.17229 16.9389 6.51673 17.2834C6.86118 17.6278 7.28895 17.8 7.80006 17.8ZM24.2334 27.3334C24.7445 27.3334 25.1723 27.1611 25.5167 26.8167C25.8612 26.4722 26.0334 26.0445 26.0334 25.5334C26.0334 25.0222 25.8612 24.5945 25.5167 24.25C25.1723 23.9056 24.7445 23.7334 24.2334 23.7334C23.7223 23.7334 23.2945 23.9056 22.9501 24.25C22.6056 24.5945 22.4334 25.0222 22.4334 25.5334C22.4334 26.0445 22.6056 26.4722 22.9501 26.8167C23.2945 27.1611 23.7223 27.3334 24.2334 27.3334Z" fill="black"/>
</svg>
