<svg width="24" height="24" viewBox="0 0 24 24" fill="none" xmlns="http://www.w3.org/2000/svg">
<path d="M3.5 20.625C2.9 20.625 2.39583 20.4208 1.9875 20.0125C1.57917 19.6042 1.375 19.1 1.375 18.5V14.325C1.95833 14.2083 2.4625 13.9375 2.8875 13.5125C3.3125 13.0875 3.525 12.5833 3.525 12C3.525 11.3833 3.3125 10.8667 2.8875 10.45C2.4625 10.0333 1.95833 9.76667 1.375 9.65V5.50001C1.375 4.88334 1.57917 4.37084 1.9875 3.96251C2.39583 3.55417 2.9 3.35001 3.5 3.35001H20.5C21.1167 3.35001 21.6292 3.55417 22.0375 3.96251C22.4458 4.37084 22.65 4.88334 22.65 5.50001V9.65C22.05 9.76667 21.5417 10.0333 21.125 10.45C20.7083 10.8667 20.5 11.3833 20.5 12C20.5 12.5833 20.7083 13.0875 21.125 13.5125C21.5417 13.9375 22.05 14.2083 22.65 14.325V18.5C22.65 19.1 22.4458 19.6042 22.0375 20.0125C21.6292 20.4208 21.1167 20.625 20.5 20.625H3.5ZM12 16.775C12.25 16.775 12.4625 16.6875 12.6375 16.5125C12.8125 16.3375 12.9 16.1333 12.9 15.9C12.9 15.65 12.8125 15.4375 12.6375 15.2625C12.4625 15.0875 12.25 15 12 15C11.7667 15 11.5583 15.0875 11.375 15.2625C11.1917 15.4375 11.1 15.65 11.1 15.9C11.1 16.1333 11.1917 16.3375 11.375 16.5125C11.5583 16.6875 11.7667 16.775 12 16.775ZM12 12.9C12.25 12.9 12.4625 12.8083 12.6375 12.625C12.8125 12.4417 12.9 12.2333 12.9 12C12.9 11.75 12.8125 11.5375 12.6375 11.3625C12.4625 11.1875 12.25 11.1 12 11.1C11.7667 11.1 11.5583 11.1875 11.375 11.3625C11.1917 11.5375 11.1 11.75 11.1 12C11.1 12.2333 11.1917 12.4417 11.375 12.625C11.5583 12.8083 11.7667 12.9 12 12.9ZM12 9.00001C12.25 9.00001 12.4625 8.90834 12.6375 8.72501C12.8125 8.54167 12.9 8.33334 12.9 8.10001C12.9 7.85001 12.8125 7.64167 12.6375 7.47501C12.4625 7.30834 12.25 7.22501 12 7.22501C11.7667 7.22501 11.5583 7.30834 11.375 7.47501C11.1917 7.64167 11.1 7.85001 11.1 8.10001C11.1 8.33334 11.1917 8.54167 11.375 8.72501C11.5583 8.90834 11.7667 9.00001 12 9.00001Z" fill="#555555"/>
</svg>
