<svg width="24" height="24" viewBox="0 0 24 24" fill="none" xmlns="http://www.w3.org/2000/svg">
<path d="M2.84961 18.875V5.12502C2.84961 4.82502 2.97878 4.59586 3.23711 4.43752C3.49544 4.27919 3.76628 4.25836 4.04961 4.37502L20.2996 11.2C20.6496 11.35 20.8246 11.6167 20.8246 12C20.8246 12.3834 20.6496 12.65 20.2996 12.8L4.04961 19.625C3.76628 19.7417 3.49544 19.7209 3.23711 19.5625C2.97878 19.4042 2.84961 19.175 2.84961 18.875ZM4.49961 17.6L17.9246 12L4.49961 6.32502V10.375L10.6246 12L4.49961 13.575V17.6ZM4.49961 12V6.32502V17.6V12Z" fill="black"/>
</svg>
