<svg width="24" height="24" viewBox="0 0 24 24" fill="none" xmlns="http://www.w3.org/2000/svg">
<path d="M12.25 15.55C12.9333 15.55 13.5167 15.3167 14 14.85C14.4833 14.3833 14.725 13.8083 14.725 13.125V6.85H17.625V5.35H13.725V11.225C13.5417 11.075 13.3208 10.9583 13.0625 10.875C12.8042 10.7917 12.5333 10.75 12.25 10.75C11.6 10.75 11.05 10.9792 10.6 11.4375C10.15 11.8958 9.925 12.45 9.925 13.1C9.925 13.7667 10.15 14.3417 10.6 14.825C11.05 15.3083 11.6 15.55 12.25 15.55ZM6.65 19.05C6.2 19.05 5.80417 18.8792 5.4625 18.5375C5.12083 18.1958 4.95 17.8 4.95 17.35V3.45C4.95 2.98333 5.12083 2.58333 5.4625 2.25C5.80417 1.91667 6.2 1.75 6.65 1.75H20.55C21.0167 1.75 21.4167 1.91667 21.75 2.25C22.0833 2.58333 22.25 2.98333 22.25 3.45V17.35C22.25 17.8 22.0833 18.1958 21.75 18.5375C21.4167 18.8792 21.0167 19.05 20.55 19.05H6.65ZM3.45 22.25C2.98333 22.25 2.58333 22.0833 2.25 21.75C1.91667 21.4167 1.75 21.0167 1.75 20.55V4.95H3.45V20.55H19.05V22.25H3.45Z" fill="#555555"/>
</svg>
