<svg width="24" height="24" viewBox="0 0 24 24" fill="none" xmlns="http://www.w3.org/2000/svg">
<path d="M8.67539 2.49999V0.674988H15.3254V2.49999H8.67539ZM11.1004 13.975H12.9004V8.19999H11.1004V13.975ZM12.0004 22.625C10.7004 22.625 9.48372 22.3792 8.35039 21.8875C7.21706 21.3958 6.22956 20.725 5.38789 19.875C4.54622 19.025 3.87956 18.0333 3.38789 16.9C2.89622 15.7667 2.65039 14.5583 2.65039 13.275C2.65039 11.975 2.89622 10.7583 3.38789 9.62499C3.87956 8.49165 4.54622 7.49999 5.38789 6.64999C6.22956 5.79999 7.21706 5.12915 8.35039 4.63749C9.48372 4.14582 10.7004 3.89999 12.0004 3.89999C13.1337 3.89999 14.2046 4.08749 15.2129 4.46249C16.2212 4.83749 17.1171 5.36665 17.9004 6.04999L19.3004 4.64999L20.6004 5.92499L19.2004 7.32499C19.8004 8.00832 20.3129 8.83749 20.7379 9.81249C21.1629 10.7875 21.3754 11.9417 21.3754 13.275C21.3754 14.5583 21.1296 15.7708 20.6379 16.9125C20.1462 18.0542 19.4754 19.0458 18.6254 19.8875C17.7754 20.7292 16.7796 21.3958 15.6379 21.8875C14.4962 22.3792 13.2837 22.625 12.0004 22.625ZM12.0004 20.625C14.0504 20.625 15.7921 19.9125 17.2254 18.4875C18.6587 17.0625 19.3754 15.325 19.3754 13.275C19.3754 11.225 18.6587 9.48332 17.2254 8.04999C15.7921 6.61665 14.0504 5.89999 12.0004 5.89999C9.95039 5.89999 8.20872 6.61249 6.77539 8.03749C5.34206 9.46249 4.62539 11.2083 4.62539 13.275C4.62539 15.325 5.34206 17.0625 6.77539 18.4875C8.20872 19.9125 9.95039 20.625 12.0004 20.625Z" fill="#555555"/>
</svg>
