<svg width="24" height="24" viewBox="0 0 24 24" fill="none" xmlns="http://www.w3.org/2000/svg">
<path d="M7.9 20.5H16.1V17.325C16.1 16.1583 15.7042 15.1542 14.9125 14.3125C14.1208 13.4708 13.15 13.05 12 13.05C10.85 13.05 9.87917 13.4708 9.0875 14.3125C8.29583 15.1542 7.9 16.1583 7.9 17.325V20.5ZM12 10.95C13.15 10.95 14.1208 10.5292 14.9125 9.6875C15.7042 8.84583 16.1 7.83333 16.1 6.65V3.5H7.9V6.65C7.9 7.83333 8.29583 8.84583 9.0875 9.6875C9.87917 10.5292 10.85 10.95 12 10.95ZM4 22V20.5H6.4V17.325C6.4 16.1583 6.70417 15.0875 7.3125 14.1125C7.92083 13.1375 8.76667 12.4333 9.85 12C8.76667 11.5667 7.92083 10.8583 7.3125 9.875C6.70417 8.89167 6.4 7.81667 6.4 6.65V3.5H4V2H20V3.5H17.6V6.65C17.6 7.81667 17.2958 8.89167 16.6875 9.875C16.0792 10.8583 15.2333 11.5667 14.15 12C15.2333 12.4333 16.0792 13.1375 16.6875 14.1125C17.2958 15.0875 17.6 16.1583 17.6 17.325V20.5H20V22H4Z" fill="#C1C1C1"/>
</svg>
