<svg width="24" height="24" viewBox="0 0 24 24" fill="none" xmlns="http://www.w3.org/2000/svg">
<circle cx="12" cy="12" r="12" fill="#08BCFF"/>
<path d="M6.50625 17.6438H7.10625L15.2625 9.45002L14.6625 8.85002L6.50625 17.0438V17.6438ZM17.9437 8.66252L15.4688 6.18752L15.8625 5.77502C16.2125 5.42502 16.6281 5.2469 17.1094 5.24065C17.5906 5.2344 18.0063 5.40002 18.3563 5.73752L18.6937 6.07502C18.9812 6.35002 19.1094 6.66877 19.0781 7.03127C19.0469 7.39377 18.9062 7.70002 18.6562 7.95002L17.9437 8.66252ZM17.175 9.43127L7.63125 18.975H5.15625V16.5L14.6812 6.97502L17.175 9.43127ZM14.9813 9.15002L14.6625 8.85002L15.2625 9.45002L14.9813 9.15002Z" fill="white"/>
</svg>
