<svg width="24" height="24" viewBox="0 0 24 24" fill="none" xmlns="http://www.w3.org/2000/svg">
<mask id="mask0_250_56" style="mask-type:alpha" maskUnits="userSpaceOnUse" x="0" y="0" width="24" height="24">
<rect width="24" height="24" fill="#D9D9D9"/>
</mask>
<g mask="url(#mask0_250_56)">
<path d="M9.775 12.8864C9.175 12.8864 8.675 12.6302 8.275 12.1178C7.875 11.6055 7.71667 11.0077 7.8 10.3245L8.125 7.5348C8.25833 6.45309 8.69167 5.5566 9.425 4.84533C10.1583 4.1333 11.0167 3.77728 12 3.77728C12.9833 3.77728 13.8417 4.1333 14.575 4.84533C15.3083 5.5566 15.7417 6.45309 15.875 7.5348L16.2 10.3245C16.2833 11.0077 16.125 11.6055 15.725 12.1178C15.325 12.6302 14.825 12.8864 14.225 12.8864H9.775ZM4 21.9956V18.8074C4 18.1621 4.146 17.5689 4.438 17.0277C4.72933 16.4872 5.11667 16.0746 5.6 15.79C6.63333 15.2017 7.68333 14.7603 8.75 14.4657C9.81667 14.172 10.9 14.0251 12 14.0251C13.1 14.0251 14.1833 14.172 15.25 14.4657C16.3167 14.7603 17.3667 15.2017 18.4 15.79C18.8833 16.0746 19.2707 16.4872 19.562 17.0277C19.854 17.5689 20 18.1621 20 18.8074V21.9956H4Z" fill="#555555"/>
</g>
</svg>
